<?xml version="1.0" encoding="iso-8859-1"?>
<!-- Generator: Adobe Illustrator 19.1.1, SVG Export Plug-In . SVG Version: 6.00 Build 0)  -->
<svg version="1.1" id="Layer_1" xmlns="http://www.w3.org/2000/svg" xmlns:xlink="http://www.w3.org/1999/xlink" x="0px" y="0px"
	 viewBox="0 0 40 40" style="enable-background:new 0 0 40 40;" xml:space="preserve">
<g>
	<rect x="15.5" y="23.5" style="fill:#FFEEA3;" width="2" height="15"/>
	<path style="fill:#F5C276;" d="M17,24v14h-1V24H17 M18,23h-3v16h3V23L18,23z"/>
</g>
<g>
	<rect x="23.5" y="23.5" style="fill:#FFEEA3;" width="2" height="15"/>
	<path style="fill:#F5C276;" d="M25,24v14h-1V24H25 M26,23h-3v16h3V23L26,23z"/>
</g>
<g>
	<path style="fill:#8BB7F0;" d="M13,24.5c-0.827,0-1.5-0.673-1.5-1.5v-1.55c1.14-0.232,2-1.242,2-2.45s-0.86-2.217-2-2.45V3
		c0-0.827,0.673-1.5,1.5-1.5h15c0.827,0,1.5,0.673,1.5,1.5v13.55c-1.14,0.232-2,1.242-2,2.45s0.86,2.217,2,2.45V23
		c0,0.827-0.673,1.5-1.5,1.5H13z"/>
	<g>
		<path style="fill:#4E7AB5;" d="M28,2c0.551,0,1,0.449,1,1v13.171c-1.164,0.413-2,1.525-2,2.829s0.836,2.416,2,2.829V23
			c0,0.551-0.449,1-1,1H13c-0.551,0-1-0.449-1-1v-1.171c1.164-0.413,2-1.525,2-2.829s-0.836-2.416-2-2.829V3c0-0.551,0.449-1,1-1H28
			 M28,1H13c-1.105,0-2,0.895-2,2v14c1.105,0,2,0.895,2,2c0,1.105-0.895,2-2,2v2c0,1.105,0.895,2,2,2h15c1.105,0,2-0.895,2-2v-2
			c-1.105,0-2-0.895-2-2c0-1.105,0.895-2,2-2V3C30,1.895,29.105,1,28,1L28,1z"/>
	</g>
</g>
<g>
	<path style="fill:#7496C4;" d="M27.779,17H13.221C13.7,17.532,14,18.228,14,19s-0.3,1.468-0.779,2h14.557
		C27.3,20.468,27,19.772,27,19S27.3,17.532,27.779,17z"/>
</g>
</svg>
