<?xml version="1.0" encoding="iso-8859-1"?>
<!-- Generator: Adobe Illustrator 19.1.1, SVG Export Plug-In . SVG Version: 6.00 Build 0)  -->
<svg version="1.1" id="Layer_1" xmlns="http://www.w3.org/2000/svg" xmlns:xlink="http://www.w3.org/1999/xlink" x="0px" y="0px"
	 viewBox="0 0 40 40" style="enable-background:new 0 0 40 40;" xml:space="preserve">
<g>
	
		<rect x="-4.87" y="19" transform="matrix(-0.7071 0.7071 -0.7071 -0.7071 48.2843 20)" style="fill:#FFEEA3;" width="49.741" height="2"/>
	<path style="fill:#F5C276;" d="M36.879,2.414l0.707,0.707L3.121,37.586l-0.707-0.707L36.879,2.414 M36.879,1L1,36.879L3.121,39
		L39,3.121L36.879,1L36.879,1z"/>
</g>
<g>
	<path style="fill:#99C99E;" d="M13.36,35.5c-0.676,0-1.31-0.263-1.787-0.74L5.24,28.427c-0.478-0.478-0.74-1.111-0.74-1.786
		c0-0.676,0.263-1.31,0.74-1.787l3.083-3.084l3.947-1.333l8.166-8.166l1.333-3.947l3.084-3.083c0.478-0.478,1.111-0.74,1.787-0.74
		c0.675,0,1.309,0.263,1.786,0.74l6.333,6.333c0.478,0.478,0.74,1.111,0.74,1.787c0,0.675-0.263,1.309-0.74,1.786l-3.032,3.084
		l-3.998,1.332l-8.167,8.167l-1.332,3.998l-3.081,3.029C14.669,35.237,14.035,35.5,13.36,35.5z"/>
	<path style="fill:#5E9C76;" d="M26.64,5c0.541,0,1.05,0.211,1.433,0.594l6.333,6.333C34.789,12.309,35,12.818,35,13.36
		s-0.211,1.05-0.6,1.439l-2.945,2.995l-3.772,1.257l-0.224,0.075l-0.167,0.167l-8,8l-0.167,0.167l-0.075,0.224l-1.257,3.772
		l-3.001,2.951C14.41,34.789,13.901,35,13.36,35s-1.05-0.211-1.433-0.594l-6.333-6.333C5.211,27.691,5,27.182,5,26.64
		s0.211-1.05,0.594-1.433l3.001-3.001l3.725-1.258l0.222-0.075l0.165-0.165l8-8l0.165-0.165l0.075-0.222l1.258-3.725l3.001-3.001
		C25.59,5.211,26.099,5,26.64,5 M26.64,4c-0.775,0-1.549,0.296-2.14,0.887l-3.166,3.166L20,12l-8,8l-3.947,1.333L4.887,24.5
		c-1.182,1.182-1.182,3.099,0,4.281l6.333,6.333C11.81,35.704,12.585,36,13.36,36s1.549-0.296,2.14-0.887L18.667,32L20,28l8-8
		l4-1.333l3.113-3.166c1.182-1.182,1.182-3.099,0-4.281l-6.333-6.333C28.19,4.296,27.415,4,26.64,4L26.64,4z"/>
</g>
<path style="fill:#84B788;" d="M11.927,34.406C12.309,34.789,12.818,35,13.36,35s1.05-0.211,1.433-0.594l3.001-2.951l0.165-0.496
	l-8.908-8.908l-0.457,0.154l-3.001,3.001C5.211,25.59,5,26.099,5,26.64s0.211,1.05,0.594,1.433L11.927,34.406z"/>
<polygon style="fill:#BAE0BD;" points="19.126,27.46 19.293,27.293 12.707,20.707 12.542,20.872 12.32,20.947 9.052,22.052 
	17.959,30.959 19.051,27.684 "/>
<polygon style="fill:#84B788;" points="31.536,17.712 22.089,8.94 20.947,12.32 20.873,12.542 20.707,12.707 20.707,12.707 
	27.293,19.293 27.293,19.293 27.46,19.126 27.684,19.051 31.456,17.794 "/>
<path style="fill:#BAE0BD;" d="M35,13.36c0-0.541-0.211-1.05-0.594-1.433l-6.333-6.333C27.691,5.211,27.182,5,26.64,5
	s-1.05,0.211-1.433,0.594l-3.001,3.001l-0.114,0.337l9.477,8.748l2.832-2.88C34.789,14.41,35,13.901,35,13.36z"/>
</svg>
